<svg width="78" height="77" viewBox="0 0 78 77" fill="none"><path d="M57.9666 19.7233C57.9666 14.3773 52.9478 12.7067 48.5981 13.0408V13.8762C51.1075 13.8762 53.1151 14.7115 53.1151 16.5491C53.1151 17.7186 52.2786 19.2221 49.7692 19.2221C47.7616 19.2221 43.9138 18.0527 40.7352 17.0503C37.222 15.8809 34.0434 14.7115 31.3667 14.7115C26.0132 14.7115 21.9981 18.7209 21.9981 23.5657C21.9981 27.5752 25.0095 28.9117 26.1805 29.4129L26.5151 28.7446C25.6786 28.2435 25.0095 27.5752 25.0095 26.0717C25.0095 24.9022 26.0132 23.0645 28.8573 23.0645C31.3667 23.0645 34.5453 24.234 38.895 25.4034C42.5755 26.4058 46.7578 27.4081 48.9327 27.7423V36.0953L44.7503 39.6036V39.9378L48.9327 43.6131V55.1404C46.7578 56.3098 44.2484 56.6439 42.2409 56.6439C38.2258 56.6439 34.5453 55.6416 31.534 52.3003L42.7428 46.9544V28.2435L28.8573 34.2577C30.3629 30.5823 33.2069 28.2435 36.0509 26.4058L35.8837 25.9046C27.6862 28.0764 20.3252 35.5942 20.3252 44.7826C20.3252 55.8086 29.3591 63.9946 39.5641 63.9946C50.6056 63.9946 57.632 55.3074 57.4647 46.2861H56.7956C55.1226 49.7944 52.7805 53.1356 49.7692 54.8063V43.4461L54.1188 39.9378V39.6036L49.7692 35.9283V27.5752C53.7842 27.5752 57.9666 24.9022 57.9666 19.7233ZM34.2107 49.9615L30.8648 51.6321C29.0245 49.1262 27.6862 45.7849 27.6862 41.2743C27.6862 39.4366 27.8535 37.0977 28.5227 35.4271L34.2107 32.9212V49.9615Z" fill="black"></path></svg>