<svg width="78" height="77" viewBox="0 0 78 77" fill="none"><path d="M15.0872 38.0841C15.0872 32.8837 15.0726 27.684 15.0925 22.4837C15.1059 18.8809 17.9086 15.6677 21.4788 15.1183C21.9574 15.0448 22.446 15.0052 22.9298 15.0046C33.1135 14.9988 43.2971 14.9999 53.4808 15.0005C57.2097 15.0005 60.3025 17.463 61.1039 21.102C61.2276 21.6648 61.2568 22.258 61.2574 22.8371C61.2673 30.6615 61.2638 38.4859 61.2638 46.3103C61.2638 48.7693 61.2749 51.2283 61.2591 53.6873C61.2364 57.2819 58.464 60.4998 54.9136 61.0626C54.4356 61.1384 53.9465 61.1804 53.4632 61.1804C43.2703 61.1869 33.0767 61.1857 22.8837 61.1851C19.1442 61.1851 16.0695 58.7418 15.2471 55.0982C15.1456 54.6474 15.0954 54.1755 15.0942 53.713C15.0831 48.5039 15.0872 43.2937 15.0872 38.0841ZM23.4644 38.0981C23.4644 42.1021 23.4901 46.1067 23.4528 50.1108C23.4364 51.8396 24.7374 52.8159 26.1434 52.8107C34.1961 52.7792 42.2489 52.7955 50.3016 52.795C51.8488 52.795 52.8837 51.7667 52.8837 50.2216C52.8848 42.1354 52.8848 34.0491 52.8819 25.9634C52.8819 25.7412 52.8697 25.5137 52.8201 25.2985C52.5516 24.1291 51.5856 23.3936 50.3249 23.393C42.6417 23.3918 34.9584 23.3924 27.2751 23.3924C26.7989 23.3924 26.3209 23.3737 25.8458 23.3982C24.8214 23.4513 24.0615 23.943 23.674 24.8937C23.5216 25.267 23.4744 25.7056 23.4732 26.1145C23.4592 30.1092 23.4644 34.1039 23.4644 38.0981ZM31.8808 42.8685C31.8825 43.8285 32.4457 44.3879 33.4053 44.3879C36.5757 44.3885 39.7467 44.3885 42.9171 44.3879C43.9129 44.3879 44.4732 43.839 44.4743 42.8376C44.479 39.6787 44.4784 36.5198 44.4743 33.3614C44.4732 32.3431 43.9169 31.7971 42.9002 31.7971C39.749 31.7965 36.5979 31.7965 33.4467 31.7971C32.4282 31.7971 31.8808 32.3442 31.8796 33.3632C31.8784 34.938 31.879 36.5122 31.879 38.087C31.8802 39.6804 31.8778 41.2745 31.8808 42.8685Z" fill="black"></path></svg>