<svg width="77" height="77" viewBox="0 0 77 77" fill="none"><path d="M24.1924 44.6564C24.1924 47.4612 21.9011 49.7526 19.0962 49.7526C16.2913 49.7526 14 47.4612 14 44.6564C14 41.8515 16.2913 39.5602 19.0962 39.5602H24.1924V44.6564Z" fill="black"></path><path d="M26.7598 44.6565C26.7598 41.8516 29.0511 39.5603 31.856 39.5603C34.6608 39.5603 36.9522 41.8516 36.9522 44.6565V57.4167C36.9522 60.2216 34.6608 62.5129 31.856 62.5129C29.0511 62.5129 26.7598 60.2216 26.7598 57.4167V44.6565Z" fill="black"></path><path d="M31.856 24.1925C29.0511 24.1925 26.7598 21.9012 26.7598 19.0963C26.7598 16.2914 29.0511 14.0001 31.856 14.0001C34.6608 14.0001 36.9522 16.2914 36.9522 19.0963V24.1925H31.856Z" fill="black"></path><path d="M31.8564 26.7603C34.6613 26.7603 36.9526 29.0516 36.9526 31.8564C36.9526 34.6613 34.6613 36.9526 31.8564 36.9526H19.0962C16.2913 36.9526 14 34.6613 14 31.8564C14 29.0516 16.2913 26.7603 19.0962 26.7603H31.8564Z" fill="black"></path><path d="M52.3203 31.8564C52.3203 29.0516 54.6116 26.7603 57.4165 26.7603C60.2214 26.7603 62.5127 29.0516 62.5127 31.8564C62.5127 34.6613 60.2214 36.9526 57.4165 36.9526H52.3203V31.8564Z" fill="black"></path><path d="M49.752 31.8566C49.752 34.6614 47.4606 36.9527 44.6558 36.9527C41.8509 36.9527 39.5596 34.6614 39.5596 31.8566V19.0963C39.5596 16.2914 41.8509 14.0001 44.6558 14.0001C47.4606 14.0001 49.752 16.2914 49.752 19.0963V31.8566Z" fill="black"></path><path d="M44.6558 52.3204C47.4606 52.3204 49.752 54.6117 49.752 57.4166C49.752 60.2215 47.4606 62.5128 44.6558 62.5128C41.8509 62.5128 39.5596 60.2215 39.5596 57.4166V52.3204H44.6558Z" fill="black"></path><path d="M44.6558 49.7526C41.8509 49.7526 39.5596 47.4612 39.5596 44.6564C39.5596 41.8515 41.8509 39.5602 44.6558 39.5602H57.416C60.2209 39.5602 62.5122 41.8515 62.5122 44.6564C62.5122 47.4612 60.2209 49.7526 57.416 49.7526H44.6558Z" fill="black"></path></svg>