<svg width="78" height="77" viewBox="0 0 78 77" fill="none"><path d="M29.9688 59.2204C48.8036 59.2204 59.1055 43.6265 59.1055 30.1035C59.1055 29.6606 59.1055 29.2197 59.0755 28.7807C61.0797 27.3321 62.8097 25.5384 64.1845 23.4837C62.3156 24.3113 60.333 24.854 58.3029 25.0937C60.4406 23.8148 62.0406 21.8033 62.805 19.4336C60.7948 20.6256 58.5957 21.4656 56.3024 21.9175C54.7585 20.2769 52.7165 19.1905 50.4924 18.8265C48.2683 18.4624 45.9862 18.8411 43.9992 19.9038C42.0122 20.9665 40.431 22.654 39.5004 24.7052C38.5698 26.7563 38.3416 29.0569 38.8512 31.2507C34.7798 31.0467 30.7969 29.9894 27.161 28.1475C23.5251 26.3055 20.3175 23.72 17.7463 20.5588C16.4368 22.8116 16.0358 25.4785 16.6248 28.0165C17.2138 30.5544 18.7486 32.7726 20.9168 34.2194C19.2871 34.1712 17.693 33.7319 16.2689 32.9386C16.2689 32.9805 16.2689 33.0244 16.2689 33.0683C16.2696 35.4309 17.088 37.7206 18.5854 39.549C20.0828 41.3774 22.167 42.6319 24.4845 43.0998C22.9769 43.5106 21.3951 43.5707 19.8606 43.2753C20.515 45.3087 21.7889 47.0868 23.5043 48.3611C25.2197 49.6353 27.2908 50.3419 29.4278 50.382C25.8016 53.2299 21.3222 54.7759 16.7102 54.7712C15.8954 54.7697 15.0814 54.7204 14.2725 54.6236C18.9555 57.6268 24.4044 59.2198 29.9688 59.2124" fill="black"></path></svg>